<?xml version="1.0" encoding="UTF-8" standalone="no"?>
<!-- Generator: Adobe Illustrator 19.0.0, SVG Export Plug-In . SVG Version: 6.00 Build 0)  -->

<svg
   xmlns:dc="http://purl.org/dc/elements/1.1/"
   xmlns:cc="http://creativecommons.org/ns#"
   xmlns:rdf="http://www.w3.org/1999/02/22-rdf-syntax-ns#"
   xmlns:svg="http://www.w3.org/2000/svg"
   xmlns="http://www.w3.org/2000/svg"
   xmlns:sodipodi="http://sodipodi.sourceforge.net/DTD/sodipodi-0.dtd"
   xmlns:inkscape="http://www.inkscape.org/namespaces/inkscape"
   version="1.1"
   id="Capa_1"
   x="0px"
   y="0px"
   viewBox="0 0 490.667 490.667"
   style="enable-background:new 0 0 490.667 490.667;"
   xml:space="preserve"
   sodipodi:docname="compass.svg"
   inkscape:version="0.92.4 (f8dce91, 2019-08-02)"><metadata
   id="metadata49"><rdf:RDF><cc:Work
       rdf:about=""><dc:format>image/svg+xml</dc:format><dc:type
         rdf:resource="http://purl.org/dc/dcmitype/StillImage" /></cc:Work></rdf:RDF></metadata><defs
   id="defs47" /><sodipodi:namedview
   pagecolor="#ffffff"
   bordercolor="#666666"
   borderopacity="1"
   objecttolerance="10"
   gridtolerance="10"
   guidetolerance="10"
   inkscape:pageopacity="0"
   inkscape:pageshadow="2"
   inkscape:window-width="1366"
   inkscape:window-height="704"
   id="namedview45"
   showgrid="false"
   inkscape:zoom="0.48097794"
   inkscape:cx="245.3335"
   inkscape:cy="245.3335"
   inkscape:window-x="0"
   inkscape:window-y="27"
   inkscape:window-maximized="1"
   inkscape:current-layer="Capa_1" />
<g
   id="g6"
   style="fill:#d15042;fill-opacity:1">
	<g
   id="g4"
   style="fill:#d15042;fill-opacity:1">
		<path
   d="M245.333,0C110.059,0,0,110.059,0,245.333s110.059,245.333,245.333,245.333s245.333-110.059,245.333-245.333    S380.608,0,245.333,0z M245.333,448c-111.744,0-202.667-90.923-202.667-202.667S133.589,42.667,245.333,42.667    S448,133.589,448,245.333S357.077,448,245.333,448z"
   id="path2"
   style="fill:#d15042;fill-opacity:1" />
	</g>
</g>
<g
   id="g12"
   style="fill:#d15042;fill-opacity:1">
	<g
   id="g10"
   style="fill:#d15042;fill-opacity:1">
		<path
   d="M359.552,131.136c-3.093-3.115-7.765-4.011-11.755-2.261l-149.333,64c-2.517,1.067-4.523,3.093-5.611,5.611l-64,149.333    c-1.728,4.011-0.832,8.661,2.261,11.755c2.048,2.005,4.779,3.093,7.552,3.093c1.408,0,2.837-0.299,4.203-0.853l149.333-64    c2.517-1.088,4.523-3.093,5.611-5.611l64-149.333C363.52,138.859,362.624,134.208,359.552,131.136z M245.333,266.667    c-11.755,0-21.333-9.579-21.333-21.333c0-11.755,9.579-21.333,21.333-21.333c11.755,0,21.333,9.579,21.333,21.333    C266.667,257.088,257.088,266.667,245.333,266.667z"
   id="path8"
   style="fill:#d15042;fill-opacity:1" />
	</g>
</g>
<g
   id="g14"
   style="fill:#d15042;fill-opacity:1">
</g>
<g
   id="g16"
   style="fill:#d15042;fill-opacity:1">
</g>
<g
   id="g18"
   style="fill:#d15042;fill-opacity:1">
</g>
<g
   id="g20"
   style="fill:#d15042;fill-opacity:1">
</g>
<g
   id="g22"
   style="fill:#d15042;fill-opacity:1">
</g>
<g
   id="g24"
   style="fill:#d15042;fill-opacity:1">
</g>
<g
   id="g26"
   style="fill:#d15042;fill-opacity:1">
</g>
<g
   id="g28"
   style="fill:#d15042;fill-opacity:1">
</g>
<g
   id="g30"
   style="fill:#d15042;fill-opacity:1">
</g>
<g
   id="g32"
   style="fill:#d15042;fill-opacity:1">
</g>
<g
   id="g34"
   style="fill:#d15042;fill-opacity:1">
</g>
<g
   id="g36"
   style="fill:#d15042;fill-opacity:1">
</g>
<g
   id="g38"
   style="fill:#d15042;fill-opacity:1">
</g>
<g
   id="g40"
   style="fill:#d15042;fill-opacity:1">
</g>
<g
   id="g42"
   style="fill:#d15042;fill-opacity:1">
</g>
</svg>