<?xml version="1.0" encoding="UTF-8" standalone="no"?>
<svg
   xmlns:dc="http://purl.org/dc/elements/1.1/"
   xmlns:cc="http://creativecommons.org/ns#"
   xmlns:rdf="http://www.w3.org/1999/02/22-rdf-syntax-ns#"
   xmlns:svg="http://www.w3.org/2000/svg"
   xmlns="http://www.w3.org/2000/svg"
   xmlns:sodipodi="http://sodipodi.sourceforge.net/DTD/sodipodi-0.dtd"
   xmlns:inkscape="http://www.inkscape.org/namespaces/inkscape"
   fill="#000000"
   viewBox="0 0 24 24"
   width="24px"
   height="24px"
   version="1.1"
   id="svg4"
   sodipodi:docname="icon-facebook-grey.svg"
   inkscape:version="0.92.4 (f8dce91, 2019-08-02)">
  <metadata
     id="metadata10">
    <rdf:RDF>
      <cc:Work
         rdf:about="">
        <dc:format>image/svg+xml</dc:format>
        <dc:type
           rdf:resource="http://purl.org/dc/dcmitype/StillImage" />
        <dc:title></dc:title>
      </cc:Work>
    </rdf:RDF>
  </metadata>
  <defs
     id="defs8" />
  <sodipodi:namedview
     pagecolor="#ffffff"
     bordercolor="#666666"
     borderopacity="1"
     objecttolerance="10"
     gridtolerance="10"
     guidetolerance="10"
     inkscape:pageopacity="0"
     inkscape:pageshadow="2"
     inkscape:window-width="1366"
     inkscape:window-height="704"
     id="namedview6"
     showgrid="false"
     inkscape:zoom="9.8333333"
     inkscape:cx="14.020371"
     inkscape:cy="11.211623"
     inkscape:window-x="0"
     inkscape:window-y="27"
     inkscape:window-maximized="1"
     inkscape:current-layer="svg4" />
  <path
     d="M 21.800781 0 L 2.199219 0 C 1 0 0 1 0 2.199219 L 0 21.800781 C 0 23 1 24 2.199219 24 L 12 24 L 12 14 L 9 14 L 9 11 L 12 11 L 12 8 C 12 5.5 13 4 16 4 L 19 4 L 19 7 L 17.699219 7 C 16.800781 7 16 7.800781 16 8.699219 L 16 11 L 20 11 L 19.5 14 L 16 14 L 16 24 L 21.800781 24 C 23 24 24 23 24 21.800781 L 24 2.199219 C 24 1 23 0 21.800781 0 Z"
     id="path2"
     style="fill:#000000;fill-opacity:1" />
  <path
     style="opacity:1;vector-effect:none;fill:#3b5998;fill-opacity:0;stroke-width:0.10169491;stroke-linecap:butt;stroke-linejoin:miter;stroke-miterlimit:4;stroke-dasharray:none;stroke-dashoffset:0;stroke-opacity:1"
     d="M 1.7278202,23.893261 C 1.2039516,23.769573 0.58789816,23.282619 0.32478826,22.784247 L 0.08816727,22.336048 V 11.995157 1.6542655 L 0.32277769,1.2060672 C 0.46676466,0.93099535 0.74617746,0.63020261 1.0461351,0.42736035 L 1.5348821,0.09685187 H 11.951169 c 10.0387,0 10.429965,0.0070141 10.793592,0.19349309 0.439343,0.22530827 0.735501,0.52911179 1.001003,1.02684594 0.181767,0.340758 0.189861,0.795984 0.189861,10.6779661 v 10.322034 l -0.218917,0.40678 c -0.253691,0.471395 -0.552216,0.763738 -1.05227,1.030477 -0.321042,0.171251 -0.662456,0.193003 -3.48305,0.221909 l -3.127119,0.03205 v -4.987273 -4.987273 l 1.751311,-0.02782 1.751312,-0.02782 0.225402,-1.322034 c 0.123971,-0.727119 0.228254,-1.402119 0.231739,-1.5 0.0058,-0.163624 -0.153476,-0.177966 -1.976713,-0.177966 H 16.054269 V 9.703755 c 0,-1.4044391 0.09219,-1.7580415 0.572221,-2.1947609 0.397666,-0.3617874 0.854513,-0.496888 1.680242,-0.496888 h 0.69669 V 5.4866824 3.9612587 h -1.876351 c -2.568038,0 -3.433709,0.2133695 -4.241113,1.0453438 -0.717132,0.7389561 -0.834063,1.2396381 -0.878062,3.7597409 L 11.96928,10.978208 H 10.452452 8.9356249 v 1.525424 1.525423 h 1.5254241 1.525423 v 4.983051 4.983051 l -4.9576268,-0.01041 c -2.7266949,-0.0057 -5.1121561,-0.04689 -5.301025,-0.09149 z"
     id="path817"
     inkscape:connector-curvature="0" />
  <path
     style="opacity:1;vector-effect:none;fill:#666666;fill-opacity:0;stroke-width:0.10169491;stroke-linecap:butt;stroke-linejoin:miter;stroke-miterlimit:4;stroke-dasharray:none;stroke-dashoffset:0;stroke-opacity:1"
     d="M 1.7278202,23.893261 C 1.2039516,23.769573 0.58789816,23.282619 0.32478826,22.784247 L 0.08816727,22.336048 V 11.995157 1.6542655 L 0.32277769,1.2060672 C 0.46676466,0.93099535 0.74617746,0.63020261 1.0461351,0.42736035 L 1.5348821,0.09685187 H 11.951169 c 10.0387,0 10.429965,0.0070141 10.793592,0.19349309 0.439343,0.22530827 0.735501,0.52911179 1.001003,1.02684594 0.181767,0.340758 0.189861,0.795984 0.189861,10.6779661 v 10.322034 l -0.218917,0.40678 c -0.253691,0.471395 -0.552216,0.763738 -1.05227,1.030477 -0.321042,0.171251 -0.662456,0.193003 -3.48305,0.221909 l -3.127119,0.03205 v -4.987273 -4.987273 l 1.751311,-0.02782 1.751312,-0.02782 0.225402,-1.322034 c 0.123971,-0.727119 0.228254,-1.402119 0.231739,-1.5 0.0058,-0.163624 -0.153476,-0.177966 -1.976713,-0.177966 H 16.054269 V 9.703755 c 0,-1.4044391 0.09219,-1.7580415 0.572221,-2.1947609 0.397666,-0.3617874 0.854513,-0.496888 1.680242,-0.496888 h 0.69669 V 5.4866824 3.9612587 h -1.876351 c -2.568038,0 -3.433709,0.2133695 -4.241113,1.0453438 -0.717132,0.7389561 -0.834063,1.2396381 -0.878062,3.7597409 L 11.96928,10.978208 H 10.452452 8.9356249 v 1.525424 1.525423 h 1.5254241 1.525423 v 4.983051 4.983051 l -4.9576268,-0.01041 c -2.7266949,-0.0057 -5.1121561,-0.04689 -5.301025,-0.09149 z"
     id="path819"
     inkscape:connector-curvature="0" />
  <path
     style="opacity:1;vector-effect:none;fill:#666666;fill-opacity:1;stroke-width:0.10169491;stroke-linecap:butt;stroke-linejoin:miter;stroke-miterlimit:4;stroke-dasharray:none;stroke-dashoffset:0;stroke-opacity:1"
     d="M 1.7278202,23.893261 C 1.2039516,23.769573 0.58789816,23.282619 0.32478826,22.784247 L 0.08816727,22.336048 V 11.995157 1.6542655 L 0.32277769,1.2060672 C 0.46676466,0.93099535 0.74617746,0.63020261 1.0461351,0.42736035 L 1.5348821,0.09685187 H 11.951169 c 10.0387,0 10.429965,0.0070141 10.793592,0.19349309 0.439343,0.22530827 0.735501,0.52911179 1.001003,1.02684594 0.181767,0.340758 0.189861,0.795984 0.189861,10.6779661 v 10.322034 l -0.218917,0.40678 c -0.253691,0.471395 -0.552216,0.763738 -1.05227,1.030477 -0.321042,0.171251 -0.662456,0.193003 -3.48305,0.221909 l -3.127119,0.03205 v -4.987273 -4.987273 l 1.751311,-0.02782 1.751312,-0.02782 0.225402,-1.322034 c 0.123971,-0.727119 0.228254,-1.402119 0.231739,-1.5 0.0058,-0.163624 -0.153476,-0.177966 -1.976713,-0.177966 H 16.054269 V 9.703755 c 0,-1.4044391 0.09219,-1.7580415 0.572221,-2.1947609 0.397666,-0.3617874 0.854513,-0.496888 1.680242,-0.496888 h 0.69669 V 5.4866824 3.9612587 h -1.876351 c -2.568038,0 -3.433709,0.2133695 -4.241113,1.0453438 -0.717132,0.7389561 -0.834063,1.2396381 -0.878062,3.7597409 L 11.96928,10.978208 H 10.452452 8.9356249 v 1.525424 1.525423 h 1.5254241 1.525423 v 4.983051 4.983051 l -4.9576268,-0.01041 c -2.7266949,-0.0057 -5.1121561,-0.04689 -5.301025,-0.09149 z"
     id="path848"
     inkscape:connector-curvature="0" />
</svg>
