<?xml version="1.0" encoding="UTF-8" standalone="no"?>
<svg
   xmlns:dc="http://purl.org/dc/elements/1.1/"
   xmlns:cc="http://creativecommons.org/ns#"
   xmlns:rdf="http://www.w3.org/1999/02/22-rdf-syntax-ns#"
   xmlns:svg="http://www.w3.org/2000/svg"
   xmlns="http://www.w3.org/2000/svg"
   xmlns:sodipodi="http://sodipodi.sourceforge.net/DTD/sodipodi-0.dtd"
   xmlns:inkscape="http://www.inkscape.org/namespaces/inkscape"
   enable-background="new 0 0 21 21"
   viewBox="0 0 21 21"
   version="1.1"
   id="svg9"
   sodipodi:docname="icon-search-glass.svg"
   inkscape:version="0.92.4 (f8dce91, 2019-08-02)">
  <metadata
     id="metadata15">
    <rdf:RDF>
      <cc:Work
         rdf:about="">
        <dc:format>image/svg+xml</dc:format>
        <dc:type
           rdf:resource="http://purl.org/dc/dcmitype/StillImage" />
      </cc:Work>
    </rdf:RDF>
  </metadata>
  <defs
     id="defs13" />
  <sodipodi:namedview
     pagecolor="#ffffff"
     bordercolor="#666666"
     borderopacity="1"
     objecttolerance="10"
     gridtolerance="10"
     guidetolerance="10"
     inkscape:pageopacity="0"
     inkscape:pageshadow="2"
     inkscape:window-width="640"
     inkscape:window-height="480"
     id="namedview11"
     showgrid="false"
     inkscape:zoom="11.238095"
     inkscape:cx="10.5"
     inkscape:cy="10.5"
     inkscape:window-x="0"
     inkscape:window-y="27"
     inkscape:window-maximized="0"
     inkscape:current-layer="svg9" />
  <clipPath
     id="a">
    <path
       d="m0 0h21v21h-21z"
       id="path2" />
  </clipPath>
  <g
     clip-path="url(#a)"
     id="g7"
     style="fill:#ffffff">
    <path
       d="m8.5 1c4.1 0 7.5 3.4 7.5 7.5 0 1.8-.6 3.5-1.8 4.8l-.4.5-.5.4c-1.3 1.2-3 1.8-4.8 1.8-4.1 0-7.5-3.4-7.5-7.5s3.4-7.5 7.5-7.5m0-1c-4.7 0-8.5 3.8-8.5 8.5s3.8 8.5 8.5 8.5c2.1 0 4-.7 5.5-2l5.5 5.5 1.1-1.1-5.6-5.4c1.2-1.5 2-3.4 2-5.5 0-4.7-3.8-8.5-8.5-8.5z"
       id="path5"
       style="fill:#ffffff" />
  </g>
</svg>
