<?xml version="1.0" encoding="UTF-8" standalone="no"?>
<svg
   xmlns:dc="http://purl.org/dc/elements/1.1/"
   xmlns:cc="http://creativecommons.org/ns#"
   xmlns:rdf="http://www.w3.org/1999/02/22-rdf-syntax-ns#"
   xmlns:svg="http://www.w3.org/2000/svg"
   xmlns="http://www.w3.org/2000/svg"
   xmlns:sodipodi="http://sodipodi.sourceforge.net/DTD/sodipodi-0.dtd"
   xmlns:inkscape="http://www.inkscape.org/namespaces/inkscape"
   height="512"
   viewBox="0 0 64 64"
   width="512"
   version="1.1"
   id="svg21"
   sodipodi:docname="job.svg"
   inkscape:version="0.92.4 (f8dce91, 2019-08-02)">
  <metadata
     id="metadata27">
    <rdf:RDF>
      <cc:Work
         rdf:about="">
        <dc:format>image/svg+xml</dc:format>
        <dc:type
           rdf:resource="http://purl.org/dc/dcmitype/StillImage" />
      </cc:Work>
    </rdf:RDF>
  </metadata>
  <defs
     id="defs25" />
  <sodipodi:namedview
     pagecolor="#ffffff"
     bordercolor="#666666"
     borderopacity="1"
     objecttolerance="10"
     gridtolerance="10"
     guidetolerance="10"
     inkscape:pageopacity="0"
     inkscape:pageshadow="2"
     inkscape:window-width="1366"
     inkscape:window-height="704"
     id="namedview23"
     showgrid="false"
     inkscape:zoom="0.4609375"
     inkscape:cx="256"
     inkscape:cy="256"
     inkscape:window-x="0"
     inkscape:window-y="27"
     inkscape:window-maximized="1"
     inkscape:current-layer="svg21" />
  <g
     id="Human_Resource-Search-Paper-Magnifying_Glass-Resume"
     data-name="Human Resource-Search-Paper-Magnifying Glass-Resume"
     style="fill:#444444;fill-opacity:1">
    <path
       d="m43 56h-32a3 3 0 0 1 -3-3v-46a3 3 0 0 1 3-3h27v5a3 3 0 0 0 3 3h5v24h2v-25a1 1 0 0 0 -.293-.707l-8-8a1 1 0 0 0 -.707-.293h-28a5.006 5.006 0 0 0 -5 5v46a5.006 5.006 0 0 0 5 5h32a5 5 0 0 0 3.75-1.693l-1.5-1.323a3 3 0 0 1 -2.25 1.016zm-3-47v-3.586l4.586 4.586h-3.586a1 1 0 0 1 -1-1z"
       id="path2"
       style="fill:#444444;fill-opacity:1" />
    <path
       d="m61.006 57.057-4.242-4.245a3 3 0 0 0 -3.405-.575l-1.595-1.594a8.005 8.005 0 1 0 -1.414 1.414l1.594 1.594a3 3 0 0 0 .577 3.406l4.243 4.243a3 3 0 0 0 4.242-4.242zm-19.8-7.072a6 6 0 1 1 8.485 0 6.007 6.007 0 0 1 -8.484 0zm18.385 9.9a1 1 0 0 1 -1.414 0l-4.242-4.242a1 1 0 0 1 1.414-1.415l4.242 4.243a1 1 0 0 1 .001 1.414z"
       id="path4"
       style="fill:#444444;fill-opacity:1" />
    <path
       d="m48.293 42.293-3.293 3.293-1.293-1.293-1.414 1.414 2 2a1 1 0 0 0 1.414 0l4-4z"
       id="path6"
       style="fill:#444444;fill-opacity:1" />
    <path
       d="m14 38h2v2h-2z"
       id="path8"
       style="fill:#444444;fill-opacity:1" />
    <path
       d="m18 38h19v2h-19z"
       id="path10"
       style="fill:#444444;fill-opacity:1" />
    <path
       d="m14 42h22v2h-22z"
       id="path12"
       style="fill:#444444;fill-opacity:1" />
    <path
       d="m14 46h22v2h-22z"
       id="path14"
       style="fill:#444444;fill-opacity:1" />
    <path
       d="m14 50h23v2h-23z"
       id="path16"
       style="fill:#444444;fill-opacity:1" />
    <path
       d="m18 35a1 1 0 0 0 1 1h16a1 1 0 0 0 1-1v-3a6.969 6.969 0 0 0 -1.8-4.671 4 4 0 0 0 .578-6.207 3 3 0 0 0 -1.007-3.535 1.718 1.718 0 0 1 -.771-1.347 6.381 6.381 0 0 0 -1.946-4.565 5.787 5.787 0 0 0 -4.272-1.675 5.99 5.99 0 0 0 -5.782 6v.265a1.713 1.713 0 0 1 -.771 1.316 3.016 3.016 0 0 0 -1.229 2.419 2.965 2.965 0 0 0 .217 1.122 4 4 0 0 0 .578 6.207 6.969 6.969 0 0 0 -1.795 4.671zm16-1h-14v-2a4.991 4.991 0 0 1 4.624-4.962l1.669 1.669a1 1 0 0 0 1.414 0l1.669-1.669a4.991 4.991 0 0 1 4.624 4.962zm-7-11a3 3 0 0 1 -3-3v-1h.343a4.969 4.969 0 0 0 3.536-1.465l.121-.121.707.707a2.981 2.981 0 0 0 1.293.764v1.115a3 3 0 0 1 -3 3zm0 2a5 5 0 0 0 1-.1v.687l-1 1-1-1v-.687a5 5 0 0 0 1 .1zm6-5a.948.948 0 0 1 -.268.674 1 1 0 0 0 .238 1.573 2 2 0 0 1 1.03 1.753 1.97 1.97 0 0 1 -1.521 1.933 6.929 6.929 0 0 0 -2.479-.862v-1.1a4.977 4.977 0 0 0 2-3.971v-1.336a4.254 4.254 0 0 0 .6.539.99.99 0 0 1 .4.797zm-10-4a4.008 4.008 0 0 1 1.163-2.829 4.049 4.049 0 0 1 2.692-1.171 3.918 3.918 0 0 1 2.809 1.115 4.387 4.387 0 0 1 1.336 3.158 3.273 3.273 0 0 0 .1.746c-.033 0-.062-.019-.1-.019h-.172a1 1 0 0 1 -.707-.293l-1.414-1.414a1 1 0 0 0 -1.414 0l-.828.828a2.98 2.98 0 0 1 -2.122.879h-1.343a.835.835 0 0 0 -.1.02 3.255 3.255 0 0 0 .1-.755zm-1.97 6.247a1 1 0 0 0 .238-1.573.948.948 0 0 1 -.268-.674 1.01 1.01 0 0 1 .413-.808 4.23 4.23 0 0 0 .587-.533v1.341a4.977 4.977 0 0 0 2 3.974v1.1a6.929 6.929 0 0 0 -2.479.862 1.97 1.97 0 0 1 -1.521-1.936 2 2 0 0 1 1.03-1.753z"
       id="path18"
       style="fill:#444444;fill-opacity:1" />
  </g>
</svg>
