<?xml version="1.0" encoding="UTF-8" standalone="no"?>
<!-- Generator: Adobe Illustrator 19.0.0, SVG Export Plug-In . SVG Version: 6.00 Build 0)  -->

<svg
   xmlns:dc="http://purl.org/dc/elements/1.1/"
   xmlns:cc="http://creativecommons.org/ns#"
   xmlns:rdf="http://www.w3.org/1999/02/22-rdf-syntax-ns#"
   xmlns:svg="http://www.w3.org/2000/svg"
   xmlns="http://www.w3.org/2000/svg"
   xmlns:sodipodi="http://sodipodi.sourceforge.net/DTD/sodipodi-0.dtd"
   xmlns:inkscape="http://www.inkscape.org/namespaces/inkscape"
   version="1.1"
   id="Layer_1"
   x="0px"
   y="0px"
   viewBox="0 0 492.004 492.004"
   style="enable-background:new 0 0 492.004 492.004;"
   xml:space="preserve"
   sodipodi:docname="next.svg"
   inkscape:version="0.92.4 (f8dce91, 2019-08-02)"><metadata
   id="metadata43"><rdf:RDF><cc:Work
       rdf:about=""><dc:format>image/svg+xml</dc:format><dc:type
         rdf:resource="http://purl.org/dc/dcmitype/StillImage" /></cc:Work></rdf:RDF></metadata><defs
   id="defs41" /><sodipodi:namedview
   pagecolor="#ffffff"
   bordercolor="#666666"
   borderopacity="1"
   objecttolerance="10"
   gridtolerance="10"
   guidetolerance="10"
   inkscape:pageopacity="0"
   inkscape:pageshadow="2"
   inkscape:window-width="1366"
   inkscape:window-height="704"
   id="namedview39"
   showgrid="false"
   inkscape:zoom="0.4796709"
   inkscape:cx="243.91724"
   inkscape:cy="246.002"
   inkscape:window-x="0"
   inkscape:window-y="27"
   inkscape:window-maximized="1"
   inkscape:current-layer="Layer_1" />
<g
   id="g6"
   style="fill:#818181;fill-opacity:1">
	<g
   id="g4"
   style="fill:#818181;fill-opacity:1">
		<path
   d="M484.14,226.886L306.46,49.202c-5.072-5.072-11.832-7.856-19.04-7.856c-7.216,0-13.972,2.788-19.044,7.856l-16.132,16.136    c-5.068,5.064-7.86,11.828-7.86,19.04c0,7.208,2.792,14.2,7.86,19.264L355.9,207.526H26.58C11.732,207.526,0,219.15,0,234.002    v22.812c0,14.852,11.732,27.648,26.58,27.648h330.496L252.248,388.926c-5.068,5.072-7.86,11.652-7.86,18.864    c0,7.204,2.792,13.88,7.86,18.948l16.132,16.084c5.072,5.072,11.828,7.836,19.044,7.836c7.208,0,13.968-2.8,19.04-7.872    l177.68-177.68c5.084-5.088,7.88-11.88,7.86-19.1C492.02,238.762,489.228,231.966,484.14,226.886z"
   id="path2"
   style="fill:#818181;fill-opacity:1" />
	</g>
</g>
<g
   id="g8"
   style="fill:#818181;fill-opacity:1">
</g>
<g
   id="g10"
   style="fill:#818181;fill-opacity:1">
</g>
<g
   id="g12"
   style="fill:#818181;fill-opacity:1">
</g>
<g
   id="g14"
   style="fill:#818181;fill-opacity:1">
</g>
<g
   id="g16"
   style="fill:#818181;fill-opacity:1">
</g>
<g
   id="g18"
   style="fill:#818181;fill-opacity:1">
</g>
<g
   id="g20"
   style="fill:#818181;fill-opacity:1">
</g>
<g
   id="g22"
   style="fill:#818181;fill-opacity:1">
</g>
<g
   id="g24"
   style="fill:#818181;fill-opacity:1">
</g>
<g
   id="g26"
   style="fill:#818181;fill-opacity:1">
</g>
<g
   id="g28"
   style="fill:#818181;fill-opacity:1">
</g>
<g
   id="g30"
   style="fill:#818181;fill-opacity:1">
</g>
<g
   id="g32"
   style="fill:#818181;fill-opacity:1">
</g>
<g
   id="g34"
   style="fill:#818181;fill-opacity:1">
</g>
<g
   id="g36"
   style="fill:#818181;fill-opacity:1">
</g>
</svg>