<?xml version="1.0" encoding="UTF-8" standalone="no"?>
<!-- Generator: Adobe Illustrator 19.0.0, SVG Export Plug-In . SVG Version: 6.00 Build 0)  -->

<svg
   xmlns:dc="http://purl.org/dc/elements/1.1/"
   xmlns:cc="http://creativecommons.org/ns#"
   xmlns:rdf="http://www.w3.org/1999/02/22-rdf-syntax-ns#"
   xmlns:svg="http://www.w3.org/2000/svg"
   xmlns="http://www.w3.org/2000/svg"
   xmlns:sodipodi="http://sodipodi.sourceforge.net/DTD/sodipodi-0.dtd"
   xmlns:inkscape="http://www.inkscape.org/namespaces/inkscape"
   version="1.1"
   id="Capa_1"
   x="0px"
   y="0px"
   viewBox="0 0 511.999 511.999"
   style="enable-background:new 0 0 511.999 511.999;"
   xml:space="preserve"
   sodipodi:docname="pet.svg"
   inkscape:version="0.92.4 (f8dce91, 2019-08-02)"><metadata
   id="metadata79"><rdf:RDF><cc:Work
       rdf:about=""><dc:format>image/svg+xml</dc:format><dc:type
         rdf:resource="http://purl.org/dc/dcmitype/StillImage" /></cc:Work></rdf:RDF></metadata><defs
   id="defs77" /><sodipodi:namedview
   pagecolor="#ffffff"
   bordercolor="#666666"
   borderopacity="1"
   objecttolerance="10"
   gridtolerance="10"
   guidetolerance="10"
   inkscape:pageopacity="0"
   inkscape:pageshadow="2"
   inkscape:window-width="772"
   inkscape:window-height="480"
   id="namedview75"
   showgrid="false"
   inkscape:zoom="0.46093841"
   inkscape:cx="168.18026"
   inkscape:cy="255.9995"
   inkscape:window-x="0"
   inkscape:window-y="27"
   inkscape:window-maximized="0"
   inkscape:current-layer="Capa_1" />
<g
   id="g6"
   style="fill:#444444;fill-opacity:1">
	<g
   id="g4"
   style="fill:#444444;fill-opacity:1">
		<path
   d="M509.759,463.344l-144.29-140.567c-2.945-2.87-7.65-2.839-10.558,0.069l-2.215,2.215l-53.221-53.222    c22.656-28.615,36.202-64.755,36.202-104.002C335.676,75.291,260.383,0,167.838,0S0,75.291,0,167.838    s75.292,167.838,167.838,167.838c39.248,0,75.389-13.546,104.003-36.202l53.221,53.221l-2.215,2.215    c-2.907,2.908-2.939,7.612-0.068,10.558l140.567,144.29c2.883,2.96,7.776,2.991,10.698,0.07l35.788-35.788    C512.748,471.121,512.718,466.225,509.759,463.344z M167.838,320.645c-84.259,0-152.807-68.549-152.807-152.807    S83.58,15.03,167.838,15.03s152.807,68.549,152.807,152.807S252.097,320.645,167.838,320.645z M283.227,289.604    c2.181-2.068,4.308-4.194,6.377-6.377l52.463,52.464l-6.377,6.377L283.227,289.604z M338.72,360.294l21.574-21.574l22.054,21.485    l-22.144,22.144L338.72,360.294z M370.694,393.116l22.421-22.421l21.378,20.827l-22.973,22.973L370.694,393.116z M468.797,493.817    l-66.786-68.556l23.251-23.251l68.555,66.787L468.797,493.817z"
   id="path2"
   style="fill:#444444;fill-opacity:1" />
	</g>
</g>
<g
   id="g12"
   style="fill:#444444;fill-opacity:1">
	<g
   id="g10"
   style="fill:#444444;fill-opacity:1">
		<path
   d="M253.434,62.44c-3.221-2.618-7.954-2.129-10.572,1.09c-2.618,3.221-2.13,7.954,1.09,10.572    c28.362,23.059,44.628,57.225,44.628,93.736c0,66.578-54.165,120.743-120.743,120.743S47.094,234.416,47.094,167.838    S101.259,47.095,167.838,47.095c15.907,0,31.362,3.043,45.936,9.043c3.841,1.581,8.232-0.25,9.811-4.088    c1.579-3.838-0.25-8.231-4.088-9.811c-16.4-6.751-33.78-10.174-51.659-10.174c-74.866,0-135.773,60.908-135.773,135.773    s60.908,135.773,135.773,135.773s135.773-60.908,135.773-135.773C303.611,126.783,285.322,88.367,253.434,62.44z"
   id="path8"
   style="fill:#444444;fill-opacity:1" />
	</g>
</g>
<g
   id="g18"
   style="fill:#444444;fill-opacity:1">
	<g
   id="g16"
   style="fill:#444444;fill-opacity:1">
		<path
   d="M167.838,144.29c-33.979,0-61.624,27.645-61.624,61.624c0,31.057,23.036,49.6,61.624,49.6    c38.588,0,61.624-18.542,61.624-49.6C229.462,171.935,201.817,144.29,167.838,144.29z M167.838,240.484    c-17.401,0-46.594-4.491-46.594-34.57c0-25.692,20.901-46.594,46.594-46.594s46.594,20.902,46.594,46.594    C214.432,235.993,185.239,240.484,167.838,240.484z"
   id="path14"
   style="fill:#444444;fill-opacity:1" />
	</g>
</g>
<g
   id="g24"
   style="fill:#444444;fill-opacity:1">
	<g
   id="g22"
   style="fill:#444444;fill-opacity:1">
		<path
   d="M137.778,84.169c-15.36,0-25.551,18.997-25.551,31.564c0,14.089,11.462,25.551,25.551,25.551s25.551-11.462,25.551-25.551    C163.329,103.167,153.137,84.169,137.778,84.169z M137.778,126.254c-5.802,0-10.521-4.719-10.521-10.521    c0-7.107,5.998-16.533,10.521-16.533c4.523,0,10.521,9.426,10.521,16.533C148.299,121.534,143.579,126.254,137.778,126.254z"
   id="path20"
   style="fill:#444444;fill-opacity:1" />
	</g>
</g>
<g
   id="g30"
   style="fill:#444444;fill-opacity:1">
	<g
   id="g28"
   style="fill:#444444;fill-opacity:1">
		<path
   d="M197.899,84.169c-15.36,0-25.551,18.997-25.551,31.564c0,14.089,11.462,25.551,25.551,25.551    c14.089,0,25.551-11.462,25.551-25.551C223.45,103.167,213.258,84.169,197.899,84.169z M197.899,126.254    c-5.802,0-10.521-4.719-10.521-10.521c0-7.107,5.998-16.533,10.521-16.533c4.523,0,10.521,9.426,10.521,16.533    C208.42,121.534,203.7,126.254,197.899,126.254z"
   id="path26"
   style="fill:#444444;fill-opacity:1" />
	</g>
</g>
<g
   id="g36"
   style="fill:#444444;fill-opacity:1">
	<g
   id="g34"
   style="fill:#444444;fill-opacity:1">
		<path
   d="M245.995,120.242c-15.36,0-25.551,18.997-25.551,31.564c0,14.089,11.462,25.551,25.551,25.551    c14.088,0,25.551-11.462,25.551-25.551C271.547,139.239,261.355,120.242,245.995,120.242z M245.995,162.327    c-5.802,0-10.521-4.719-10.521-10.521c0-7.107,5.998-16.533,10.521-16.533c4.523,0,10.521,9.426,10.521,16.533    C256.516,157.607,251.797,162.327,245.995,162.327z"
   id="path32"
   style="fill:#444444;fill-opacity:1" />
	</g>
</g>
<g
   id="g42"
   style="fill:#444444;fill-opacity:1">
	<g
   id="g40"
   style="fill:#444444;fill-opacity:1">
		<path
   d="M89.681,120.242c-15.36,0-25.551,18.997-25.551,31.564c0,14.089,11.462,25.551,25.551,25.551    c14.089,0,25.551-11.462,25.551-25.551C115.232,139.239,105.041,120.242,89.681,120.242z M89.681,162.327    c-5.802,0-10.521-4.719-10.521-10.521c0-7.107,5.998-16.533,10.521-16.533c4.523,0,10.521,9.426,10.521,16.533    C100.202,157.607,95.482,162.327,89.681,162.327z"
   id="path38"
   style="fill:#444444;fill-opacity:1" />
	</g>
</g>
<g
   id="g44"
   style="fill:#444444;fill-opacity:1">
</g>
<g
   id="g46"
   style="fill:#444444;fill-opacity:1">
</g>
<g
   id="g48"
   style="fill:#444444;fill-opacity:1">
</g>
<g
   id="g50"
   style="fill:#444444;fill-opacity:1">
</g>
<g
   id="g52"
   style="fill:#444444;fill-opacity:1">
</g>
<g
   id="g54"
   style="fill:#444444;fill-opacity:1">
</g>
<g
   id="g56"
   style="fill:#444444;fill-opacity:1">
</g>
<g
   id="g58"
   style="fill:#444444;fill-opacity:1">
</g>
<g
   id="g60"
   style="fill:#444444;fill-opacity:1">
</g>
<g
   id="g62"
   style="fill:#444444;fill-opacity:1">
</g>
<g
   id="g64"
   style="fill:#444444;fill-opacity:1">
</g>
<g
   id="g66"
   style="fill:#444444;fill-opacity:1">
</g>
<g
   id="g68"
   style="fill:#444444;fill-opacity:1">
</g>
<g
   id="g70"
   style="fill:#444444;fill-opacity:1">
</g>
<g
   id="g72"
   style="fill:#444444;fill-opacity:1">
</g>
</svg>